<?xml throwIfNamespace="false" version="1.0" encoding="utf-8"?>
<svg  width="150" height="150" viewBox="30 30 300 300"
		 xmlns="http://www.w3.org/2000/svg" xmlnsXlink="http://www.w3.org/1999/xlink" xmlnsEv="http://www.w3.org/2001/xml-events">
<rect x="0" y="0" width="0" height="0" fill="#ffffff"/>
<defs>
<rect id="p" width="8" height="8"/>
</defs>
<g fill="#000000">
<use xlinkHref="#p" x="32" y="32"/>
<use xlinkHref="#p" x="32" y="40"/>
<use xlinkHref="#p" x="32" y="48"/>
<use xlinkHref="#p" x="32" y="56"/>
<use xlinkHref="#p" x="32" y="64"/>
<use xlinkHref="#p" x="32" y="72"/>
<use xlinkHref="#p" x="32" y="80"/>
<use xlinkHref="#p" x="32" y="96"/>
<use xlinkHref="#p" x="32" y="104"/>
<use xlinkHref="#p" x="32" y="128"/>
<use xlinkHref="#p" x="32" y="160"/>
<use xlinkHref="#p" x="32" y="176"/>
<use xlinkHref="#p" x="32" y="200"/>
<use xlinkHref="#p" x="32" y="216"/>
<use xlinkHref="#p" x="32" y="232"/>
<use xlinkHref="#p" x="32" y="240"/>
<use xlinkHref="#p" x="32" y="256"/>
<use xlinkHref="#p" x="32" y="272"/>
<use xlinkHref="#p" x="32" y="280"/>
<use xlinkHref="#p" x="32" y="288"/>
<use xlinkHref="#p" x="32" y="296"/>
<use xlinkHref="#p" x="32" y="304"/>
<use xlinkHref="#p" x="32" y="312"/>
<use xlinkHref="#p" x="32" y="320"/>
<use xlinkHref="#p" x="40" y="32"/>
<use xlinkHref="#p" x="40" y="80"/>
<use xlinkHref="#p" x="40" y="96"/>
<use xlinkHref="#p" x="40" y="112"/>
<use xlinkHref="#p" x="40" y="136"/>
<use xlinkHref="#p" x="40" y="144"/>
<use xlinkHref="#p" x="40" y="152"/>
<use xlinkHref="#p" x="40" y="160"/>
<use xlinkHref="#p" x="40" y="168"/>
<use xlinkHref="#p" x="40" y="176"/>
<use xlinkHref="#p" x="40" y="216"/>
<use xlinkHref="#p" x="40" y="224"/>
<use xlinkHref="#p" x="40" y="248"/>
<use xlinkHref="#p" x="40" y="256"/>
<use xlinkHref="#p" x="40" y="272"/>
<use xlinkHref="#p" x="40" y="320"/>
<use xlinkHref="#p" x="48" y="32"/>
<use xlinkHref="#p" x="48" y="48"/>
<use xlinkHref="#p" x="48" y="56"/>
<use xlinkHref="#p" x="48" y="64"/>
<use xlinkHref="#p" x="48" y="80"/>
<use xlinkHref="#p" x="48" y="96"/>
<use xlinkHref="#p" x="48" y="104"/>
<use xlinkHref="#p" x="48" y="112"/>
<use xlinkHref="#p" x="48" y="128"/>
<use xlinkHref="#p" x="48" y="152"/>
<use xlinkHref="#p" x="48" y="168"/>
<use xlinkHref="#p" x="48" y="176"/>
<use xlinkHref="#p" x="48" y="184"/>
<use xlinkHref="#p" x="48" y="192"/>
<use xlinkHref="#p" x="48" y="208"/>
<use xlinkHref="#p" x="48" y="248"/>
<use xlinkHref="#p" x="48" y="272"/>
<use xlinkHref="#p" x="48" y="288"/>
<use xlinkHref="#p" x="48" y="296"/>
<use xlinkHref="#p" x="48" y="304"/>
<use xlinkHref="#p" x="48" y="320"/>
<use xlinkHref="#p" x="56" y="32"/>
<use xlinkHref="#p" x="56" y="48"/>
<use xlinkHref="#p" x="56" y="56"/>
<use xlinkHref="#p" x="56" y="64"/>
<use xlinkHref="#p" x="56" y="80"/>
<use xlinkHref="#p" x="56" y="96"/>
<use xlinkHref="#p" x="56" y="120"/>
<use xlinkHref="#p" x="56" y="136"/>
<use xlinkHref="#p" x="56" y="160"/>
<use xlinkHref="#p" x="56" y="176"/>
<use xlinkHref="#p" x="56" y="216"/>
<use xlinkHref="#p" x="56" y="232"/>
<use xlinkHref="#p" x="56" y="240"/>
<use xlinkHref="#p" x="56" y="248"/>
<use xlinkHref="#p" x="56" y="272"/>
<use xlinkHref="#p" x="56" y="288"/>
<use xlinkHref="#p" x="56" y="296"/>
<use xlinkHref="#p" x="56" y="304"/>
<use xlinkHref="#p" x="56" y="320"/>
<use xlinkHref="#p" x="64" y="32"/>
<use xlinkHref="#p" x="64" y="48"/>
<use xlinkHref="#p" x="64" y="56"/>
<use xlinkHref="#p" x="64" y="64"/>
<use xlinkHref="#p" x="64" y="80"/>
<use xlinkHref="#p" x="64" y="104"/>
<use xlinkHref="#p" x="64" y="112"/>
<use xlinkHref="#p" x="64" y="136"/>
<use xlinkHref="#p" x="64" y="144"/>
<use xlinkHref="#p" x="64" y="168"/>
<use xlinkHref="#p" x="64" y="200"/>
<use xlinkHref="#p" x="64" y="216"/>
<use xlinkHref="#p" x="64" y="224"/>
<use xlinkHref="#p" x="64" y="232"/>
<use xlinkHref="#p" x="64" y="240"/>
<use xlinkHref="#p" x="64" y="248"/>
<use xlinkHref="#p" x="64" y="272"/>
<use xlinkHref="#p" x="64" y="288"/>
<use xlinkHref="#p" x="64" y="296"/>
<use xlinkHref="#p" x="64" y="304"/>
<use xlinkHref="#p" x="64" y="320"/>
<use xlinkHref="#p" x="72" y="32"/>
<use xlinkHref="#p" x="72" y="80"/>
<use xlinkHref="#p" x="72" y="112"/>
<use xlinkHref="#p" x="72" y="152"/>
<use xlinkHref="#p" x="72" y="176"/>
<use xlinkHref="#p" x="72" y="200"/>
<use xlinkHref="#p" x="72" y="216"/>
<use xlinkHref="#p" x="72" y="272"/>
<use xlinkHref="#p" x="72" y="320"/>
<use xlinkHref="#p" x="80" y="32"/>
<use xlinkHref="#p" x="80" y="40"/>
<use xlinkHref="#p" x="80" y="48"/>
<use xlinkHref="#p" x="80" y="56"/>
<use xlinkHref="#p" x="80" y="64"/>
<use xlinkHref="#p" x="80" y="72"/>
<use xlinkHref="#p" x="80" y="80"/>
<use xlinkHref="#p" x="80" y="96"/>
<use xlinkHref="#p" x="80" y="112"/>
<use xlinkHref="#p" x="80" y="128"/>
<use xlinkHref="#p" x="80" y="144"/>
<use xlinkHref="#p" x="80" y="160"/>
<use xlinkHref="#p" x="80" y="176"/>
<use xlinkHref="#p" x="80" y="192"/>
<use xlinkHref="#p" x="80" y="208"/>
<use xlinkHref="#p" x="80" y="224"/>
<use xlinkHref="#p" x="80" y="240"/>
<use xlinkHref="#p" x="80" y="256"/>
<use xlinkHref="#p" x="80" y="272"/>
<use xlinkHref="#p" x="80" y="280"/>
<use xlinkHref="#p" x="80" y="288"/>
<use xlinkHref="#p" x="80" y="296"/>
<use xlinkHref="#p" x="80" y="304"/>
<use xlinkHref="#p" x="80" y="312"/>
<use xlinkHref="#p" x="80" y="320"/>
<use xlinkHref="#p" x="88" y="104"/>
<use xlinkHref="#p" x="88" y="128"/>
<use xlinkHref="#p" x="88" y="136"/>
<use xlinkHref="#p" x="88" y="152"/>
<use xlinkHref="#p" x="88" y="160"/>
<use xlinkHref="#p" x="88" y="184"/>
<use xlinkHref="#p" x="88" y="216"/>
<use xlinkHref="#p" x="88" y="224"/>
<use xlinkHref="#p" x="88" y="240"/>
<use xlinkHref="#p" x="88" y="248"/>
<use xlinkHref="#p" x="96" y="32"/>
<use xlinkHref="#p" x="96" y="48"/>
<use xlinkHref="#p" x="96" y="56"/>
<use xlinkHref="#p" x="96" y="64"/>
<use xlinkHref="#p" x="96" y="80"/>
<use xlinkHref="#p" x="96" y="96"/>
<use xlinkHref="#p" x="96" y="104"/>
<use xlinkHref="#p" x="96" y="112"/>
<use xlinkHref="#p" x="96" y="128"/>
<use xlinkHref="#p" x="96" y="208"/>
<use xlinkHref="#p" x="96" y="224"/>
<use xlinkHref="#p" x="96" y="256"/>
<use xlinkHref="#p" x="96" y="264"/>
<use xlinkHref="#p" x="96" y="296"/>
<use xlinkHref="#p" x="96" y="304"/>
<use xlinkHref="#p" x="96" y="312"/>
<use xlinkHref="#p" x="96" y="320"/>
<use xlinkHref="#p" x="104" y="40"/>
<use xlinkHref="#p" x="104" y="48"/>
<use xlinkHref="#p" x="104" y="56"/>
<use xlinkHref="#p" x="104" y="104"/>
<use xlinkHref="#p" x="104" y="136"/>
<use xlinkHref="#p" x="104" y="152"/>
<use xlinkHref="#p" x="104" y="160"/>
<use xlinkHref="#p" x="104" y="168"/>
<use xlinkHref="#p" x="104" y="184"/>
<use xlinkHref="#p" x="104" y="208"/>
<use xlinkHref="#p" x="104" y="216"/>
<use xlinkHref="#p" x="104" y="224"/>
<use xlinkHref="#p" x="104" y="232"/>
<use xlinkHref="#p" x="104" y="248"/>
<use xlinkHref="#p" x="104" y="272"/>
<use xlinkHref="#p" x="104" y="296"/>
<use xlinkHref="#p" x="104" y="320"/>
<use xlinkHref="#p" x="112" y="32"/>
<use xlinkHref="#p" x="112" y="40"/>
<use xlinkHref="#p" x="112" y="48"/>
<use xlinkHref="#p" x="112" y="56"/>
<use xlinkHref="#p" x="112" y="72"/>
<use xlinkHref="#p" x="112" y="80"/>
<use xlinkHref="#p" x="112" y="88"/>
<use xlinkHref="#p" x="112" y="96"/>
<use xlinkHref="#p" x="112" y="104"/>
<use xlinkHref="#p" x="112" y="112"/>
<use xlinkHref="#p" x="112" y="128"/>
<use xlinkHref="#p" x="112" y="136"/>
<use xlinkHref="#p" x="112" y="144"/>
<use xlinkHref="#p" x="112" y="168"/>
<use xlinkHref="#p" x="112" y="176"/>
<use xlinkHref="#p" x="112" y="208"/>
<use xlinkHref="#p" x="112" y="216"/>
<use xlinkHref="#p" x="112" y="232"/>
<use xlinkHref="#p" x="112" y="248"/>
<use xlinkHref="#p" x="112" y="256"/>
<use xlinkHref="#p" x="112" y="264"/>
<use xlinkHref="#p" x="112" y="272"/>
<use xlinkHref="#p" x="112" y="296"/>
<use xlinkHref="#p" x="112" y="320"/>
<use xlinkHref="#p" x="120" y="40"/>
<use xlinkHref="#p" x="120" y="64"/>
<use xlinkHref="#p" x="120" y="72"/>
<use xlinkHref="#p" x="120" y="96"/>
<use xlinkHref="#p" x="120" y="112"/>
<use xlinkHref="#p" x="120" y="136"/>
<use xlinkHref="#p" x="120" y="144"/>
<use xlinkHref="#p" x="120" y="152"/>
<use xlinkHref="#p" x="120" y="184"/>
<use xlinkHref="#p" x="120" y="216"/>
<use xlinkHref="#p" x="120" y="224"/>
<use xlinkHref="#p" x="120" y="232"/>
<use xlinkHref="#p" x="120" y="256"/>
<use xlinkHref="#p" x="120" y="264"/>
<use xlinkHref="#p" x="120" y="280"/>
<use xlinkHref="#p" x="120" y="296"/>
<use xlinkHref="#p" x="120" y="304"/>
<use xlinkHref="#p" x="128" y="32"/>
<use xlinkHref="#p" x="128" y="40"/>
<use xlinkHref="#p" x="128" y="56"/>
<use xlinkHref="#p" x="128" y="64"/>
<use xlinkHref="#p" x="128" y="80"/>
<use xlinkHref="#p" x="128" y="88"/>
<use xlinkHref="#p" x="128" y="96"/>
<use xlinkHref="#p" x="128" y="104"/>
<use xlinkHref="#p" x="128" y="112"/>
<use xlinkHref="#p" x="128" y="128"/>
<use xlinkHref="#p" x="128" y="136"/>
<use xlinkHref="#p" x="128" y="160"/>
<use xlinkHref="#p" x="128" y="216"/>
<use xlinkHref="#p" x="128" y="224"/>
<use xlinkHref="#p" x="128" y="240"/>
<use xlinkHref="#p" x="128" y="248"/>
<use xlinkHref="#p" x="128" y="264"/>
<use xlinkHref="#p" x="128" y="304"/>
<use xlinkHref="#p" x="128" y="320"/>
<use xlinkHref="#p" x="136" y="48"/>
<use xlinkHref="#p" x="136" y="56"/>
<use xlinkHref="#p" x="136" y="64"/>
<use xlinkHref="#p" x="136" y="96"/>
<use xlinkHref="#p" x="136" y="104"/>
<use xlinkHref="#p" x="136" y="120"/>
<use xlinkHref="#p" x="136" y="128"/>
<use xlinkHref="#p" x="136" y="160"/>
<use xlinkHref="#p" x="136" y="168"/>
<use xlinkHref="#p" x="136" y="200"/>
<use xlinkHref="#p" x="136" y="208"/>
<use xlinkHref="#p" x="136" y="216"/>
<use xlinkHref="#p" x="136" y="224"/>
<use xlinkHref="#p" x="136" y="240"/>
<use xlinkHref="#p" x="136" y="256"/>
<use xlinkHref="#p" x="136" y="264"/>
<use xlinkHref="#p" x="136" y="312"/>
<use xlinkHref="#p" x="136" y="320"/>
<use xlinkHref="#p" x="144" y="32"/>
<use xlinkHref="#p" x="144" y="40"/>
<use xlinkHref="#p" x="144" y="56"/>
<use xlinkHref="#p" x="144" y="64"/>
<use xlinkHref="#p" x="144" y="80"/>
<use xlinkHref="#p" x="144" y="96"/>
<use xlinkHref="#p" x="144" y="104"/>
<use xlinkHref="#p" x="144" y="120"/>
<use xlinkHref="#p" x="144" y="128"/>
<use xlinkHref="#p" x="144" y="136"/>
<use xlinkHref="#p" x="144" y="160"/>
<use xlinkHref="#p" x="144" y="184"/>
<use xlinkHref="#p" x="144" y="200"/>
<use xlinkHref="#p" x="144" y="208"/>
<use xlinkHref="#p" x="144" y="216"/>
<use xlinkHref="#p" x="144" y="224"/>
<use xlinkHref="#p" x="144" y="232"/>
<use xlinkHref="#p" x="144" y="248"/>
<use xlinkHref="#p" x="144" y="288"/>
<use xlinkHref="#p" x="144" y="304"/>
<use xlinkHref="#p" x="144" y="312"/>
<use xlinkHref="#p" x="144" y="320"/>
<use xlinkHref="#p" x="152" y="48"/>
<use xlinkHref="#p" x="152" y="64"/>
<use xlinkHref="#p" x="152" y="88"/>
<use xlinkHref="#p" x="152" y="136"/>
<use xlinkHref="#p" x="152" y="168"/>
<use xlinkHref="#p" x="152" y="176"/>
<use xlinkHref="#p" x="152" y="184"/>
<use xlinkHref="#p" x="152" y="192"/>
<use xlinkHref="#p" x="152" y="216"/>
<use xlinkHref="#p" x="152" y="224"/>
<use xlinkHref="#p" x="152" y="232"/>
<use xlinkHref="#p" x="152" y="248"/>
<use xlinkHref="#p" x="152" y="256"/>
<use xlinkHref="#p" x="152" y="272"/>
<use xlinkHref="#p" x="152" y="288"/>
<use xlinkHref="#p" x="152" y="296"/>
<use xlinkHref="#p" x="160" y="32"/>
<use xlinkHref="#p" x="160" y="40"/>
<use xlinkHref="#p" x="160" y="64"/>
<use xlinkHref="#p" x="160" y="72"/>
<use xlinkHref="#p" x="160" y="80"/>
<use xlinkHref="#p" x="160" y="88"/>
<use xlinkHref="#p" x="160" y="96"/>
<use xlinkHref="#p" x="160" y="104"/>
<use xlinkHref="#p" x="160" y="112"/>
<use xlinkHref="#p" x="160" y="136"/>
<use xlinkHref="#p" x="160" y="144"/>
<use xlinkHref="#p" x="160" y="184"/>
<use xlinkHref="#p" x="160" y="192"/>
<use xlinkHref="#p" x="160" y="200"/>
<use xlinkHref="#p" x="160" y="208"/>
<use xlinkHref="#p" x="160" y="240"/>
<use xlinkHref="#p" x="160" y="248"/>
<use xlinkHref="#p" x="160" y="256"/>
<use xlinkHref="#p" x="160" y="280"/>
<use xlinkHref="#p" x="160" y="296"/>
<use xlinkHref="#p" x="160" y="320"/>
<use xlinkHref="#p" x="168" y="56"/>
<use xlinkHref="#p" x="168" y="88"/>
<use xlinkHref="#p" x="168" y="96"/>
<use xlinkHref="#p" x="168" y="112"/>
<use xlinkHref="#p" x="168" y="128"/>
<use xlinkHref="#p" x="168" y="136"/>
<use xlinkHref="#p" x="168" y="168"/>
<use xlinkHref="#p" x="168" y="176"/>
<use xlinkHref="#p" x="168" y="184"/>
<use xlinkHref="#p" x="168" y="192"/>
<use xlinkHref="#p" x="168" y="224"/>
<use xlinkHref="#p" x="168" y="256"/>
<use xlinkHref="#p" x="168" y="264"/>
<use xlinkHref="#p" x="168" y="280"/>
<use xlinkHref="#p" x="168" y="288"/>
<use xlinkHref="#p" x="176" y="32"/>
<use xlinkHref="#p" x="176" y="72"/>
<use xlinkHref="#p" x="176" y="80"/>
<use xlinkHref="#p" x="176" y="88"/>
<use xlinkHref="#p" x="176" y="96"/>
<use xlinkHref="#p" x="176" y="104"/>
<use xlinkHref="#p" x="176" y="120"/>
<use xlinkHref="#p" x="176" y="136"/>
<use xlinkHref="#p" x="176" y="152"/>
<use xlinkHref="#p" x="176" y="160"/>
<use xlinkHref="#p" x="176" y="176"/>
<use xlinkHref="#p" x="176" y="184"/>
<use xlinkHref="#p" x="176" y="192"/>
<use xlinkHref="#p" x="176" y="200"/>
<use xlinkHref="#p" x="176" y="240"/>
<use xlinkHref="#p" x="176" y="256"/>
<use xlinkHref="#p" x="176" y="264"/>
<use xlinkHref="#p" x="176" y="280"/>
<use xlinkHref="#p" x="176" y="288"/>
<use xlinkHref="#p" x="176" y="296"/>
<use xlinkHref="#p" x="176" y="304"/>
<use xlinkHref="#p" x="184" y="32"/>
<use xlinkHref="#p" x="184" y="64"/>
<use xlinkHref="#p" x="184" y="72"/>
<use xlinkHref="#p" x="184" y="104"/>
<use xlinkHref="#p" x="184" y="136"/>
<use xlinkHref="#p" x="184" y="144"/>
<use xlinkHref="#p" x="184" y="184"/>
<use xlinkHref="#p" x="184" y="192"/>
<use xlinkHref="#p" x="184" y="200"/>
<use xlinkHref="#p" x="184" y="216"/>
<use xlinkHref="#p" x="184" y="224"/>
<use xlinkHref="#p" x="184" y="232"/>
<use xlinkHref="#p" x="184" y="240"/>
<use xlinkHref="#p" x="184" y="248"/>
<use xlinkHref="#p" x="184" y="296"/>
<use xlinkHref="#p" x="184" y="320"/>
<use xlinkHref="#p" x="192" y="32"/>
<use xlinkHref="#p" x="192" y="40"/>
<use xlinkHref="#p" x="192" y="48"/>
<use xlinkHref="#p" x="192" y="72"/>
<use xlinkHref="#p" x="192" y="80"/>
<use xlinkHref="#p" x="192" y="104"/>
<use xlinkHref="#p" x="192" y="112"/>
<use xlinkHref="#p" x="192" y="168"/>
<use xlinkHref="#p" x="192" y="200"/>
<use xlinkHref="#p" x="192" y="216"/>
<use xlinkHref="#p" x="192" y="256"/>
<use xlinkHref="#p" x="192" y="264"/>
<use xlinkHref="#p" x="192" y="272"/>
<use xlinkHref="#p" x="192" y="296"/>
<use xlinkHref="#p" x="200" y="32"/>
<use xlinkHref="#p" x="200" y="40"/>
<use xlinkHref="#p" x="200" y="96"/>
<use xlinkHref="#p" x="200" y="104"/>
<use xlinkHref="#p" x="200" y="112"/>
<use xlinkHref="#p" x="200" y="128"/>
<use xlinkHref="#p" x="200" y="136"/>
<use xlinkHref="#p" x="200" y="152"/>
<use xlinkHref="#p" x="200" y="160"/>
<use xlinkHref="#p" x="200" y="168"/>
<use xlinkHref="#p" x="200" y="192"/>
<use xlinkHref="#p" x="200" y="200"/>
<use xlinkHref="#p" x="200" y="248"/>
<use xlinkHref="#p" x="200" y="264"/>
<use xlinkHref="#p" x="200" y="272"/>
<use xlinkHref="#p" x="200" y="288"/>
<use xlinkHref="#p" x="200" y="296"/>
<use xlinkHref="#p" x="200" y="304"/>
<use xlinkHref="#p" x="208" y="40"/>
<use xlinkHref="#p" x="208" y="48"/>
<use xlinkHref="#p" x="208" y="56"/>
<use xlinkHref="#p" x="208" y="64"/>
<use xlinkHref="#p" x="208" y="72"/>
<use xlinkHref="#p" x="208" y="80"/>
<use xlinkHref="#p" x="208" y="120"/>
<use xlinkHref="#p" x="208" y="128"/>
<use xlinkHref="#p" x="208" y="136"/>
<use xlinkHref="#p" x="208" y="152"/>
<use xlinkHref="#p" x="208" y="160"/>
<use xlinkHref="#p" x="208" y="168"/>
<use xlinkHref="#p" x="208" y="176"/>
<use xlinkHref="#p" x="208" y="200"/>
<use xlinkHref="#p" x="208" y="216"/>
<use xlinkHref="#p" x="208" y="224"/>
<use xlinkHref="#p" x="208" y="232"/>
<use xlinkHref="#p" x="208" y="240"/>
<use xlinkHref="#p" x="208" y="256"/>
<use xlinkHref="#p" x="208" y="272"/>
<use xlinkHref="#p" x="208" y="280"/>
<use xlinkHref="#p" x="208" y="312"/>
<use xlinkHref="#p" x="208" y="320"/>
<use xlinkHref="#p" x="216" y="32"/>
<use xlinkHref="#p" x="216" y="40"/>
<use xlinkHref="#p" x="216" y="48"/>
<use xlinkHref="#p" x="216" y="56"/>
<use xlinkHref="#p" x="216" y="88"/>
<use xlinkHref="#p" x="216" y="104"/>
<use xlinkHref="#p" x="216" y="112"/>
<use xlinkHref="#p" x="216" y="120"/>
<use xlinkHref="#p" x="216" y="184"/>
<use xlinkHref="#p" x="216" y="192"/>
<use xlinkHref="#p" x="216" y="208"/>
<use xlinkHref="#p" x="216" y="224"/>
<use xlinkHref="#p" x="216" y="232"/>
<use xlinkHref="#p" x="216" y="248"/>
<use xlinkHref="#p" x="216" y="256"/>
<use xlinkHref="#p" x="216" y="264"/>
<use xlinkHref="#p" x="216" y="296"/>
<use xlinkHref="#p" x="216" y="304"/>
<use xlinkHref="#p" x="216" y="312"/>
<use xlinkHref="#p" x="224" y="40"/>
<use xlinkHref="#p" x="224" y="56"/>
<use xlinkHref="#p" x="224" y="64"/>
<use xlinkHref="#p" x="224" y="80"/>
<use xlinkHref="#p" x="224" y="96"/>
<use xlinkHref="#p" x="224" y="112"/>
<use xlinkHref="#p" x="224" y="120"/>
<use xlinkHref="#p" x="224" y="128"/>
<use xlinkHref="#p" x="224" y="160"/>
<use xlinkHref="#p" x="224" y="168"/>
<use xlinkHref="#p" x="224" y="176"/>
<use xlinkHref="#p" x="224" y="184"/>
<use xlinkHref="#p" x="224" y="192"/>
<use xlinkHref="#p" x="224" y="216"/>
<use xlinkHref="#p" x="224" y="232"/>
<use xlinkHref="#p" x="224" y="264"/>
<use xlinkHref="#p" x="224" y="272"/>
<use xlinkHref="#p" x="224" y="304"/>
<use xlinkHref="#p" x="224" y="312"/>
<use xlinkHref="#p" x="224" y="320"/>
<use xlinkHref="#p" x="232" y="48"/>
<use xlinkHref="#p" x="232" y="56"/>
<use xlinkHref="#p" x="232" y="64"/>
<use xlinkHref="#p" x="232" y="72"/>
<use xlinkHref="#p" x="232" y="112"/>
<use xlinkHref="#p" x="232" y="120"/>
<use xlinkHref="#p" x="232" y="128"/>
<use xlinkHref="#p" x="232" y="160"/>
<use xlinkHref="#p" x="232" y="176"/>
<use xlinkHref="#p" x="232" y="216"/>
<use xlinkHref="#p" x="232" y="232"/>
<use xlinkHref="#p" x="232" y="240"/>
<use xlinkHref="#p" x="232" y="288"/>
<use xlinkHref="#p" x="232" y="296"/>
<use xlinkHref="#p" x="232" y="312"/>
<use xlinkHref="#p" x="232" y="320"/>
<use xlinkHref="#p" x="240" y="40"/>
<use xlinkHref="#p" x="240" y="48"/>
<use xlinkHref="#p" x="240" y="56"/>
<use xlinkHref="#p" x="240" y="64"/>
<use xlinkHref="#p" x="240" y="72"/>
<use xlinkHref="#p" x="240" y="80"/>
<use xlinkHref="#p" x="240" y="96"/>
<use xlinkHref="#p" x="240" y="128"/>
<use xlinkHref="#p" x="240" y="152"/>
<use xlinkHref="#p" x="240" y="192"/>
<use xlinkHref="#p" x="240" y="200"/>
<use xlinkHref="#p" x="240" y="208"/>
<use xlinkHref="#p" x="240" y="224"/>
<use xlinkHref="#p" x="240" y="240"/>
<use xlinkHref="#p" x="240" y="264"/>
<use xlinkHref="#p" x="240" y="272"/>
<use xlinkHref="#p" x="240" y="280"/>
<use xlinkHref="#p" x="240" y="288"/>
<use xlinkHref="#p" x="240" y="296"/>
<use xlinkHref="#p" x="248" y="48"/>
<use xlinkHref="#p" x="248" y="64"/>
<use xlinkHref="#p" x="248" y="88"/>
<use xlinkHref="#p" x="248" y="128"/>
<use xlinkHref="#p" x="248" y="136"/>
<use xlinkHref="#p" x="248" y="168"/>
<use xlinkHref="#p" x="248" y="176"/>
<use xlinkHref="#p" x="248" y="216"/>
<use xlinkHref="#p" x="248" y="232"/>
<use xlinkHref="#p" x="248" y="248"/>
<use xlinkHref="#p" x="248" y="264"/>
<use xlinkHref="#p" x="248" y="280"/>
<use xlinkHref="#p" x="256" y="32"/>
<use xlinkHref="#p" x="256" y="40"/>
<use xlinkHref="#p" x="256" y="48"/>
<use xlinkHref="#p" x="256" y="64"/>
<use xlinkHref="#p" x="256" y="72"/>
<use xlinkHref="#p" x="256" y="80"/>
<use xlinkHref="#p" x="256" y="96"/>
<use xlinkHref="#p" x="256" y="104"/>
<use xlinkHref="#p" x="256" y="120"/>
<use xlinkHref="#p" x="256" y="128"/>
<use xlinkHref="#p" x="256" y="136"/>
<use xlinkHref="#p" x="256" y="144"/>
<use xlinkHref="#p" x="256" y="192"/>
<use xlinkHref="#p" x="256" y="208"/>
<use xlinkHref="#p" x="256" y="216"/>
<use xlinkHref="#p" x="256" y="232"/>
<use xlinkHref="#p" x="256" y="240"/>
<use xlinkHref="#p" x="256" y="256"/>
<use xlinkHref="#p" x="256" y="264"/>
<use xlinkHref="#p" x="256" y="272"/>
<use xlinkHref="#p" x="256" y="280"/>
<use xlinkHref="#p" x="256" y="288"/>
<use xlinkHref="#p" x="264" y="96"/>
<use xlinkHref="#p" x="264" y="104"/>
<use xlinkHref="#p" x="264" y="128"/>
<use xlinkHref="#p" x="264" y="144"/>
<use xlinkHref="#p" x="264" y="168"/>
<use xlinkHref="#p" x="264" y="176"/>
<use xlinkHref="#p" x="264" y="184"/>
<use xlinkHref="#p" x="264" y="216"/>
<use xlinkHref="#p" x="264" y="224"/>
<use xlinkHref="#p" x="264" y="232"/>
<use xlinkHref="#p" x="264" y="256"/>
<use xlinkHref="#p" x="264" y="288"/>
<use xlinkHref="#p" x="264" y="296"/>
<use xlinkHref="#p" x="264" y="304"/>
<use xlinkHref="#p" x="264" y="312"/>
<use xlinkHref="#p" x="264" y="320"/>
<use xlinkHref="#p" x="272" y="32"/>
<use xlinkHref="#p" x="272" y="40"/>
<use xlinkHref="#p" x="272" y="48"/>
<use xlinkHref="#p" x="272" y="56"/>
<use xlinkHref="#p" x="272" y="64"/>
<use xlinkHref="#p" x="272" y="72"/>
<use xlinkHref="#p" x="272" y="80"/>
<use xlinkHref="#p" x="272" y="104"/>
<use xlinkHref="#p" x="272" y="112"/>
<use xlinkHref="#p" x="272" y="128"/>
<use xlinkHref="#p" x="272" y="144"/>
<use xlinkHref="#p" x="272" y="152"/>
<use xlinkHref="#p" x="272" y="216"/>
<use xlinkHref="#p" x="272" y="224"/>
<use xlinkHref="#p" x="272" y="232"/>
<use xlinkHref="#p" x="272" y="256"/>
<use xlinkHref="#p" x="272" y="272"/>
<use xlinkHref="#p" x="272" y="288"/>
<use xlinkHref="#p" x="272" y="296"/>
<use xlinkHref="#p" x="272" y="304"/>
<use xlinkHref="#p" x="272" y="312"/>
<use xlinkHref="#p" x="272" y="320"/>
<use xlinkHref="#p" x="280" y="32"/>
<use xlinkHref="#p" x="280" y="80"/>
<use xlinkHref="#p" x="280" y="104"/>
<use xlinkHref="#p" x="280" y="120"/>
<use xlinkHref="#p" x="280" y="128"/>
<use xlinkHref="#p" x="280" y="136"/>
<use xlinkHref="#p" x="280" y="192"/>
<use xlinkHref="#p" x="280" y="200"/>
<use xlinkHref="#p" x="280" y="216"/>
<use xlinkHref="#p" x="280" y="256"/>
<use xlinkHref="#p" x="280" y="288"/>
<use xlinkHref="#p" x="280" y="296"/>
<use xlinkHref="#p" x="288" y="32"/>
<use xlinkHref="#p" x="288" y="48"/>
<use xlinkHref="#p" x="288" y="56"/>
<use xlinkHref="#p" x="288" y="64"/>
<use xlinkHref="#p" x="288" y="80"/>
<use xlinkHref="#p" x="288" y="96"/>
<use xlinkHref="#p" x="288" y="112"/>
<use xlinkHref="#p" x="288" y="128"/>
<use xlinkHref="#p" x="288" y="136"/>
<use xlinkHref="#p" x="288" y="144"/>
<use xlinkHref="#p" x="288" y="152"/>
<use xlinkHref="#p" x="288" y="176"/>
<use xlinkHref="#p" x="288" y="184"/>
<use xlinkHref="#p" x="288" y="192"/>
<use xlinkHref="#p" x="288" y="208"/>
<use xlinkHref="#p" x="288" y="224"/>
<use xlinkHref="#p" x="288" y="232"/>
<use xlinkHref="#p" x="288" y="240"/>
<use xlinkHref="#p" x="288" y="248"/>
<use xlinkHref="#p" x="288" y="256"/>
<use xlinkHref="#p" x="288" y="264"/>
<use xlinkHref="#p" x="288" y="272"/>
<use xlinkHref="#p" x="288" y="280"/>
<use xlinkHref="#p" x="288" y="288"/>
<use xlinkHref="#p" x="288" y="296"/>
<use xlinkHref="#p" x="288" y="304"/>
<use xlinkHref="#p" x="288" y="312"/>
<use xlinkHref="#p" x="296" y="32"/>
<use xlinkHref="#p" x="296" y="48"/>
<use xlinkHref="#p" x="296" y="56"/>
<use xlinkHref="#p" x="296" y="64"/>
<use xlinkHref="#p" x="296" y="80"/>
<use xlinkHref="#p" x="296" y="96"/>
<use xlinkHref="#p" x="296" y="104"/>
<use xlinkHref="#p" x="296" y="112"/>
<use xlinkHref="#p" x="296" y="120"/>
<use xlinkHref="#p" x="296" y="128"/>
<use xlinkHref="#p" x="296" y="136"/>
<use xlinkHref="#p" x="296" y="176"/>
<use xlinkHref="#p" x="296" y="200"/>
<use xlinkHref="#p" x="296" y="216"/>
<use xlinkHref="#p" x="296" y="224"/>
<use xlinkHref="#p" x="296" y="232"/>
<use xlinkHref="#p" x="296" y="264"/>
<use xlinkHref="#p" x="296" y="280"/>
<use xlinkHref="#p" x="296" y="296"/>
<use xlinkHref="#p" x="296" y="304"/>
<use xlinkHref="#p" x="296" y="312"/>
<use xlinkHref="#p" x="304" y="32"/>
<use xlinkHref="#p" x="304" y="48"/>
<use xlinkHref="#p" x="304" y="56"/>
<use xlinkHref="#p" x="304" y="64"/>
<use xlinkHref="#p" x="304" y="80"/>
<use xlinkHref="#p" x="304" y="96"/>
<use xlinkHref="#p" x="304" y="112"/>
<use xlinkHref="#p" x="304" y="120"/>
<use xlinkHref="#p" x="304" y="128"/>
<use xlinkHref="#p" x="304" y="144"/>
<use xlinkHref="#p" x="304" y="160"/>
<use xlinkHref="#p" x="304" y="168"/>
<use xlinkHref="#p" x="304" y="176"/>
<use xlinkHref="#p" x="304" y="216"/>
<use xlinkHref="#p" x="304" y="224"/>
<use xlinkHref="#p" x="304" y="232"/>
<use xlinkHref="#p" x="304" y="240"/>
<use xlinkHref="#p" x="304" y="256"/>
<use xlinkHref="#p" x="304" y="296"/>
<use xlinkHref="#p" x="304" y="304"/>
<use xlinkHref="#p" x="304" y="312"/>
<use xlinkHref="#p" x="304" y="320"/>
<use xlinkHref="#p" x="312" y="32"/>
<use xlinkHref="#p" x="312" y="80"/>
<use xlinkHref="#p" x="312" y="104"/>
<use xlinkHref="#p" x="312" y="128"/>
<use xlinkHref="#p" x="312" y="144"/>
<use xlinkHref="#p" x="312" y="152"/>
<use xlinkHref="#p" x="312" y="160"/>
<use xlinkHref="#p" x="312" y="168"/>
<use xlinkHref="#p" x="312" y="176"/>
<use xlinkHref="#p" x="312" y="184"/>
<use xlinkHref="#p" x="312" y="192"/>
<use xlinkHref="#p" x="312" y="224"/>
<use xlinkHref="#p" x="312" y="232"/>
<use xlinkHref="#p" x="312" y="240"/>
<use xlinkHref="#p" x="312" y="248"/>
<use xlinkHref="#p" x="312" y="256"/>
<use xlinkHref="#p" x="312" y="264"/>
<use xlinkHref="#p" x="312" y="272"/>
<use xlinkHref="#p" x="312" y="280"/>
<use xlinkHref="#p" x="312" y="320"/>
<use xlinkHref="#p" x="320" y="32"/>
<use xlinkHref="#p" x="320" y="40"/>
<use xlinkHref="#p" x="320" y="48"/>
<use xlinkHref="#p" x="320" y="56"/>
<use xlinkHref="#p" x="320" y="64"/>
<use xlinkHref="#p" x="320" y="72"/>
<use xlinkHref="#p" x="320" y="80"/>
<use xlinkHref="#p" x="320" y="96"/>
<use xlinkHref="#p" x="320" y="120"/>
<use xlinkHref="#p" x="320" y="128"/>
<use xlinkHref="#p" x="320" y="136"/>
<use xlinkHref="#p" x="320" y="168"/>
<use xlinkHref="#p" x="320" y="176"/>
<use xlinkHref="#p" x="320" y="184"/>
<use xlinkHref="#p" x="320" y="224"/>
<use xlinkHref="#p" x="320" y="232"/>
<use xlinkHref="#p" x="320" y="264"/>
<use xlinkHref="#p" x="320" y="272"/>
<use xlinkHref="#p" x="320" y="280"/>
<use xlinkHref="#p" x="320" y="320"/>
</g>
<g></g></svg>